<svg version="1.1" xmlns="http://www.w3.org/2000/svg" viewBox="0 0 154.58328213811853 149.39613966323714" width="154.58328213811853" height="149.39613966323714">
  <!-- svg-source:excalidraw -->
  
  <defs>
    <style class="style-fonts">
      
    </style>
    
  </defs>
  <rect x="0" y="0" width="154.58328213811853" height="149.39613966323714" fill="#ffffff"></rect><g stroke-linecap="round" transform="translate(14.719347984847673 13.298484184854374) rotate(0 62.86389623570989 60.00644640681401)"><path d="M30 0 C51.83 3.57, 81.22 1.4, 95.72 0 C114.43 -2.21, 127.85 8.32, 125.73 30 C124.58 42.99, 129.26 56.98, 125.73 90.01 C128.77 111.43, 114.79 118.35, 95.72 120.01 C73.87 119.83, 47.23 123.54, 30 120.01 C9.58 117.64, -1.8 107.15, 0 90.01 C-0.7 73.92, -1.36 65.59, 0 30 C-0.02 10.17, 6.51 1.21, 30 0" stroke="none" stroke-width="0" fill="#b2f2bb"></path><path d="M30 0 C51.53 -1.64, 71.97 -2.28, 95.72 0 M30 0 C50.12 0.33, 71.35 -0.48, 95.72 0 M95.72 0 C114.3 -1.92, 127.49 11.72, 125.73 30 M95.72 0 C114.35 0.01, 126.32 11.24, 125.73 30 M125.73 30 C126.6 46.75, 124.69 60.78, 125.73 90.01 M125.73 30 C124.77 43.47, 126.57 56.91, 125.73 90.01 M125.73 90.01 C123.96 109.52, 114.54 121.91, 95.72 120.01 M125.73 90.01 C124.04 109.72, 117.69 122.31, 95.72 120.01 M95.72 120.01 C71.65 118.01, 43.17 121.43, 30 120.01 M95.72 120.01 C71.99 119.29, 49.49 120.82, 30 120.01 M30 120.01 C9.07 119.98, -0.52 108.41, 0 90.01 M30 120.01 C9.29 120.19, 2.22 108.4, 0 90.01 M0 90.01 C0.66 68.57, -1.39 46.77, 0 30 M0 90.01 C-0.37 77.41, -0.07 65.07, 0 30 M0 30 C-1.99 9.9, 10.78 1.62, 30 0 M0 30 C-1.23 10.08, 12.02 -1.39, 30 0" stroke="#2f9e44" stroke-width="2" fill="none"></path></g><g stroke-linecap="round"><g transform="translate(13.576368053289343 32.729143021346545) rotate(0 64.00687616726822 0)"><path d="M-0.71 -1.07 C20.73 -0.86, 106.41 1.1, 127.78 1.1 M1.11 0.98 C22.45 0.89, 105.82 -0.24, 126.71 -0.45" stroke="#2f9e44" stroke-width="2" fill="none"></path></g></g><mask></mask><g stroke-linecap="round"><g transform="translate(12.862526081664555 52.38054920112654) rotate(0 64.00687616726822 0)"><path d="M-0.47 0.37 C20.72 0.17, 105.98 -1.21, 127.38 -1.2 M1.48 -0.49 C23.05 -0.59, 108.82 -0.1, 129.76 -0.29" stroke="#2f9e44" stroke-width="2" fill="none"></path></g></g><mask></mask><g stroke-linecap="round"><g transform="translate(15.954676012807226 68.57321396862005) rotate(0 64.00687616726816 0)"><path d="M0.33 1.15 C21.86 1.06, 107.34 -1.08, 128.63 -1.19 M-0.95 0.71 C20.52 0.78, 106.63 0.11, 128 -0.28" stroke="#2f9e44" stroke-width="2" fill="none"></path></g></g><mask></mask><g stroke-linecap="round"><g transform="translate(15.240834041182438 88.22462014840005) rotate(0 64.00687616726816 0)"><path d="M0.61 -1.19 C21.9 -1.31, 107.02 0.08, 128.06 0.48 M-0.52 0.8 C20.58 0.83, 105.52 -1.17, 127.13 -1.39" stroke="#2f9e44" stroke-width="2" fill="none"></path></g></g><mask></mask><g stroke-linecap="round"><g transform="translate(12.38073979605008 103.50126471004603) rotate(0 64.00687616726827 0)"><path d="M-0.54 0.97 C20.76 1.04, 106.32 -0.2, 127.88 -0.22 M1.38 0.44 C22.5 0.74, 105.69 1.44, 126.86 1.2" stroke="#2f9e44" stroke-width="2" fill="none"></path></g></g><mask></mask><g stroke-linecap="round"><g transform="translate(11.666897824425291 123.15267088982603) rotate(0 64.00687616726827 0)"><path d="M-0.14 -0.22 C21.42 -0.24, 107.44 0.9, 128.78 0.86 M-1.67 -1.38 C19.84 -1.82, 106.77 -1.14, 128.23 -0.81" stroke="#2f9e44" stroke-width="2" fill="none"></path></g></g><mask></mask><g stroke-linecap="round"><g transform="translate(43.29384627380671 9.869544390179271) rotate(0 1.7144698973374943 62.29240626993072)"><path d="M-0.79 0.77 C-0.12 21.69, 2.25 104.4, 2.98 124.85 M0.99 0.13 C1.55 20.73, 1.47 102.18, 1.79 122.87" stroke="#2f9e44" stroke-width="2" fill="none"></path></g></g><mask></mask><g stroke-linecap="round"><g transform="translate(75.34784658770207 12.528914793959984) rotate(0 1.7144698973374943 62.29240626993072)"><path d="M-0.57 0.73 C0.09 21.47, 2.22 104.11, 2.99 124.56 M1.33 0.07 C1.88 21, 1.43 105.4, 1.81 126.09" stroke="#2f9e44" stroke-width="2" fill="none"></path></g></g><mask></mask><g stroke-linecap="round"><g transform="translate(107.35128467133643 13.671894725518428) rotate(0 1.7144698973374943 62.29240626993072)"><path d="M-1.15 0.28 C-0.56 21.23, 2.16 104.91, 3.05 125.72 M0.44 -0.62 C0.89 20.02, 1.34 103.57, 1.9 124.2" stroke="#2f9e44" stroke-width="2" fill="none"></path></g></g><mask></mask></svg>